<svg width="25" height="24" viewBox="0 0 25 24" fill="none" xmlns="http://www.w3.org/2000/svg">
<g clip-path="url(#clip0_2101_407)">
<path d="M12.4991 12C13.2902 12 14.0636 11.7654 14.7214 11.3259C15.3792 10.8864 15.8918 10.2616 16.1946 9.53073C16.4973 8.79983 16.5766 7.99556 16.4222 7.21964C16.2679 6.44371 15.8869 5.73098 15.3275 5.17157C14.7681 4.61216 14.0554 4.2312 13.2794 4.07686C12.5035 3.92252 11.6993 4.00173 10.9683 4.30448C10.2374 4.60723 9.61273 5.11992 9.1732 5.77772C8.73368 6.43552 8.49908 7.20887 8.49908 8C8.49908 9.06087 8.92051 10.0783 9.67065 10.8284C10.4208 11.5786 11.4382 12 12.4991 12ZM12.4991 6C12.8946 6 13.2813 6.1173 13.6102 6.33706C13.9391 6.55682 14.1955 6.86918 14.3468 7.23463C14.4982 7.60009 14.5378 8.00222 14.4607 8.39018C14.3835 8.77814 14.193 9.13451 13.9133 9.41421C13.6336 9.69392 13.2772 9.8844 12.8893 9.96157C12.5013 10.0387 12.0992 9.99913 11.7337 9.84776C11.3683 9.69638 11.0559 9.44004 10.8361 9.11114C10.6164 8.78224 10.4991 8.39556 10.4991 8C10.4991 7.46957 10.7098 6.96086 11.0849 6.58579C11.4599 6.21071 11.9686 6 12.4991 6ZM21.1591 9.157L20.4401 8.918C20.5695 7.79792 20.4606 6.66315 20.1207 5.58809C19.7807 4.51302 19.2174 3.52196 18.4676 2.67989C17.7178 1.83782 16.7984 1.16376 15.7698 0.701913C14.7412 0.240067 13.6266 0.000867481 12.4991 0C11.3568 0.000440969 10.228 0.245694 9.1885 0.719235C8.14904 1.19278 7.22314 1.8836 6.4732 2.74518C5.72326 3.60675 5.16669 4.61905 4.84099 5.71387C4.51529 6.80869 4.42803 7.96061 4.58508 9.092C3.62811 9.27043 2.7432 9.72192 2.03708 10.392C1.54825 10.8567 1.15965 11.4166 0.895158 12.037C0.630666 12.6575 0.495878 13.3255 0.499079 14V18.075C0.501181 19.1563 0.852871 20.208 1.50167 21.0731C2.15047 21.9381 3.06159 22.5702 4.09908 22.875L6.96908 23.775C7.45114 23.925 7.95321 24.0009 8.45808 24C8.91607 23.9994 9.37187 23.9368 9.81308 23.814L15.5931 22.104C16.108 21.9635 16.6512 21.9635 17.1661 22.104L19.5531 22.904C20.1414 23.0472 20.7545 23.055 21.3462 22.9267C21.938 22.7985 22.4929 22.5376 22.9691 22.1637C23.4454 21.7898 23.8305 21.3127 24.0955 20.7683C24.3606 20.2239 24.4985 19.6265 24.4991 19.021V13.872C24.4968 12.8374 24.1746 11.8288 23.5767 10.9845C22.9787 10.1402 22.1343 9.50155 21.1591 9.156V9.157ZM8.25708 3.762C8.81334 3.20349 9.47441 2.76032 10.2024 2.45793C10.9303 2.15554 11.7108 1.99988 12.4991 1.99988C13.2873 1.99988 14.0678 2.15554 14.7958 2.45793C15.5238 2.76032 16.1848 3.20349 16.7411 3.762C17.8632 4.89114 18.494 6.41782 18.4961 8.00974C18.4981 9.60166 17.8713 11.13 16.7521 12.262L13.1991 15.717C13.0136 15.8988 12.7643 16.0007 12.5046 16.0007C12.2449 16.0007 11.9955 15.8988 11.8101 15.717L8.25708 12.277C7.13255 11.1454 6.50139 9.61484 6.50139 8.0195C6.50139 6.42416 7.13255 4.89361 8.25708 3.762V3.762ZM22.4991 19.021C22.4997 19.3239 22.4312 19.6229 22.2988 19.8953C22.1664 20.1677 21.9736 20.4063 21.7351 20.593C21.5097 20.7742 21.2472 20.9035 20.9661 20.9718C20.6851 21.0401 20.3925 21.0456 20.1091 20.988L17.7641 20.2C16.8771 19.9452 15.937 19.9396 15.0471 20.184L9.26308 21.892C8.70736 22.0453 8.11923 22.0352 7.56908 21.863L4.67508 20.963C4.04873 20.7819 3.49804 20.4025 3.10568 19.8817C2.71332 19.361 2.50047 18.727 2.49908 18.075V14C2.49683 13.5958 2.57729 13.1954 2.7355 12.8234C2.89372 12.4514 3.12634 12.1157 3.41908 11.837C3.87734 11.4003 4.4611 11.1184 5.08808 11.031C5.49118 12.0302 6.09146 12.9379 6.85308 13.7L10.4201 17.153C10.9776 17.6989 11.7268 18.0046 12.5071 18.0046C13.2874 18.0046 14.0366 17.6989 14.5941 17.153L18.1571 13.69C18.9548 12.889 19.5729 11.9274 19.9701 10.869L20.5071 11.047C21.0895 11.2557 21.5933 11.639 21.9498 12.1445C22.3063 12.6501 22.4981 13.2534 22.4991 13.872V19.021Z" fill="#374957"/>
</g>
<defs>
<clipPath id="clip0_2101_407">
<rect width="24" height="24" fill="white" transform="translate(0.5)"/>
</clipPath>
</defs>
</svg>
